<svg width="66" height="63" viewBox="0 0 66 63" fill="none" xmlns="http://www.w3.org/2000/svg">
<path d="M16.3333 23V19.6667C16.3333 10.4619 23.7953 3 33 3C42.2047 3 49.6667 10.4619 49.6667 19.6667V23C57.0303 23 63 28.9697 63 36.3333C63 41.2687 60.3187 45.6947 56.3333 48M16.3333 23C8.96953 23 3 28.9697 3 36.3333C3 41.2687 5.68133 45.6947 9.66667 48M16.3333 23C17.7762 23 19.1655 23.2293 20.4669 23.653M33 29.6667V59.6667M33 29.6667L43 39.6667M33 29.6667L23 39.6667" stroke="#6457FE" stroke-width="5" stroke-linecap="round" stroke-linejoin="round"/>
</svg>
